<svg xmlns="http://www.w3.org/2000/svg" xmlns:xlink="http://www.w3.org/1999/xlink" viewBox="0,0,256,256" width="48px" height="48px" fill-rule="nonzero"><defs><linearGradient x1="4.696" y1="4.696" x2="21.274" y2="21.274" gradientUnits="userSpaceOnUse" id="color-1"><stop offset="0" stop-color="#c2b7a3" stop-opacity="0.6"></stop><stop offset="1" stop-color="#c2b7a3" stop-opacity="0.30196"></stop></linearGradient><linearGradient x1="4.636" y1="4.636" x2="21.414" y2="21.414" gradientUnits="userSpaceOnUse" id="color-2"><stop offset="0" stop-color="#c2b7a3" stop-opacity="0.6"></stop><stop offset="0.493" stop-color="#c2b7a3" stop-opacity="0"></stop><stop offset="0.997" stop-color="#c2b7a3" stop-opacity="0.30196"></stop></linearGradient></defs><g fill="none" fill-rule="nonzero" stroke="none" stroke-width="1" stroke-linecap="butt" stroke-linejoin="miter" stroke-miterlimit="10" stroke-dasharray="" stroke-dashoffset="0" font-family="none" font-weight="none" font-size="none" text-anchor="none" style="mix-blend-mode: normal"><g transform="scale(10.66667,10.66667)"><path d="M21.414,18.586c-0.287,-0.287 -1.942,-1.942 -2.801,-2.801v0c0.874,-1.387 1.387,-3.025 1.387,-4.785c0,-4.971 -4.029,-9 -9,-9c-4.971,0 -9,4.029 -9,9c0,4.971 4.029,9 9,9c1.761,0 3.398,-0.513 4.785,-1.387v0c0.859,0.859 2.514,2.514 2.801,2.801c0.781,0.781 2.047,0.781 2.828,0c0.781,-0.781 0.781,-2.047 0,-2.828zM11,16c-2.761,0 -5,-2.239 -5,-5c0,-2.761 2.239,-5 5,-5c2.761,0 5,2.239 5,5c0,2.761 -2.239,5 -5,5z" fill="url(#color-1)"></path><g fill="url(#color-2)"><path d="M11,2.5c4.687,0 8.5,3.813 8.5,8.5c0,1.595 -0.453,3.158 -1.31,4.518l-0.213,0.338l0.282,0.282l2.801,2.801c0.284,0.284 0.44,0.66 0.44,1.061c0,0.401 -0.156,0.777 -0.439,1.061c-0.284,0.283 -0.66,0.439 -1.061,0.439c-0.401,0 -0.777,-0.156 -1.061,-0.439l-2.801,-2.801l-0.282,-0.282l-0.338,0.213c-1.36,0.856 -2.923,1.309 -4.518,1.309c-4.687,0 -8.5,-3.813 -8.5,-8.5c0,-4.687 3.813,-8.5 8.5,-8.5M11,16.5c3.033,0 5.5,-2.467 5.5,-5.5c0,-3.033 -2.467,-5.5 -5.5,-5.5c-3.033,0 -5.5,2.467 -5.5,5.5c0,3.033 2.467,5.5 5.5,5.5M11,2c-4.971,0 -9,4.029 -9,9c0,4.971 4.029,9 9,9c1.761,0 3.398,-0.513 4.785,-1.387v0v0v0c0.859,0.859 2.514,2.514 2.801,2.801c0.39,0.391 0.902,0.586 1.414,0.586c0.512,0 1.024,-0.195 1.414,-0.586c0.781,-0.781 0.781,-2.047 0,-2.828c-0.287,-0.287 -1.942,-1.942 -2.801,-2.801c0.874,-1.387 1.387,-3.025 1.387,-4.785c0,-4.971 -4.029,-9 -9,-9zM11,16c-2.761,0 -5,-2.239 -5,-5c0,-2.761 2.239,-5 5,-5c2.761,0 5,2.239 5,5c0,2.761 -2.239,5 -5,5z"></path></g></g></g></svg>