<svg xmlns="http://www.w3.org/2000/svg" xmlns:xlink="http://www.w3.org/1999/xlink" viewBox="0,0,256,256" width="48px" height="48px" fill-rule="nonzero"><defs><linearGradient x1="4.636" y1="4.636" x2="19.364" y2="19.364" gradientUnits="userSpaceOnUse" id="color-1"><stop offset="0" stop-color="#c2b7a3" stop-opacity="0.6"></stop><stop offset="1" stop-color="#c2b7a3" stop-opacity="0.30196"></stop></linearGradient><linearGradient x1="4.05" y1="12" x2="19.95" y2="12" gradientUnits="userSpaceOnUse" id="color-2"><stop offset="0" stop-color="#c2b7a3" stop-opacity="0.6"></stop><stop offset="0.493" stop-color="#c2b7a3" stop-opacity="0"></stop><stop offset="0.997" stop-color="#c2b7a3" stop-opacity="0.30196"></stop></linearGradient></defs><g fill="none" fill-rule="nonzero" stroke="none" stroke-width="1" stroke-linecap="butt" stroke-linejoin="miter" stroke-miterlimit="10" stroke-dasharray="" stroke-dashoffset="0" font-family="none" font-weight="none" font-size="none" text-anchor="none" style="mix-blend-mode: normal"><g transform="scale(10.66667,10.66667)"><path d="M14.828,12c2.401,-2.401 4.476,-4.476 4.536,-4.536c0.781,-0.781 0.781,-2.047 0,-2.828c-0.781,-0.781 -2.047,-0.781 -2.828,0c-0.197,0.196 -2.731,2.731 -4.536,4.536c-1.805,-1.805 -4.339,-4.339 -4.536,-4.536c-0.781,-0.781 -2.047,-0.781 -2.828,0c-0.781,0.781 -0.781,2.047 0,2.828c0.196,0.197 2.731,2.731 4.536,4.536c-1.805,1.805 -4.339,4.339 -4.536,4.536c-0.781,0.781 -0.781,2.047 0,2.828c0.781,0.781 2.047,0.781 2.828,0c0.059,-0.059 2.135,-2.135 4.536,-4.536c1.805,1.805 4.339,4.339 4.536,4.536c0.781,0.781 2.047,0.781 2.828,0c0.781,-0.781 0.781,-2.047 0,-2.828c-0.196,-0.197 -2.731,-2.731 -4.536,-4.536z" fill="url(#color-1)"></path><path d="M17.95,4.55c0.401,0 0.777,0.156 1.061,0.439c0.283,0.283 0.439,0.66 0.439,1.061c0,0.401 -0.156,0.777 -0.439,1.061l-1.978,1.978l-2.557,2.557l-0.355,0.354l0.354,0.354l2.053,2.053l2.483,2.483c0.283,0.283 0.439,0.66 0.439,1.061c0,0.401 -0.156,0.777 -0.439,1.061c-0.283,0.283 -0.66,0.439 -1.061,0.439c-0.401,0 -0.777,-0.156 -1.061,-0.439l-2.483,-2.483l-2.053,-2.053l-0.353,-0.355l-0.354,0.354l-4.535,4.535c-0.283,0.283 -0.66,0.439 -1.061,0.439c-0.401,0 -0.777,-0.156 -1.061,-0.439c-0.283,-0.283 -0.439,-0.66 -0.439,-1.06c0,-0.401 0.156,-0.777 0.439,-1.061l2.483,-2.483l2.053,-2.053l0.354,-0.353l-0.354,-0.354l-4.535,-4.535c-0.284,-0.283 -0.44,-0.66 -0.44,-1.061c0,-0.401 0.156,-0.777 0.439,-1.061c0.284,-0.283 0.661,-0.439 1.061,-0.439c0.401,0 0.777,0.156 1.061,0.439l4.536,4.536l0.353,0.354l0.354,-0.354l4.536,-4.536c0.282,-0.283 0.659,-0.439 1.06,-0.439M17.95,4.05c-0.512,0 -1.024,0.195 -1.414,0.586c-0.197,0.196 -2.731,2.731 -4.536,4.536c-1.805,-1.805 -4.339,-4.339 -4.536,-4.536c-0.39,-0.39 -0.902,-0.586 -1.414,-0.586c-0.512,0 -1.024,0.195 -1.414,0.586c-0.781,0.781 -0.781,2.047 0,2.828c0.196,0.197 2.731,2.731 4.536,4.536c-1.805,1.805 -4.339,4.339 -4.536,4.536c-0.781,0.781 -0.781,2.047 0,2.828c0.391,0.391 0.902,0.586 1.414,0.586c0.512,0 1.024,-0.195 1.414,-0.586c0.059,-0.059 2.135,-2.135 4.536,-4.536c1.805,1.805 4.339,4.339 4.536,4.536c0.391,0.391 0.902,0.586 1.414,0.586c0.512,0 1.024,-0.195 1.414,-0.586c0.781,-0.781 0.781,-2.047 0,-2.828c-0.196,-0.196 -2.731,-2.731 -4.536,-4.536c2.401,-2.401 4.476,-4.476 4.536,-4.536c0.781,-0.781 0.781,-2.047 0,-2.828c-0.391,-0.39 -0.902,-0.586 -1.414,-0.586z" fill="url(#color-2)"></path></g></g></svg>