<svg xmlns="http://www.w3.org/2000/svg" xmlns:xlink="http://www.w3.org/1999/xlink" viewBox="0,0,256,256" width="48px" height="48px" fill-rule="nonzero"><defs><linearGradient x1="3.363" y1="3.363" x2="20.637" y2="20.637" gradientUnits="userSpaceOnUse" id="color-1"><stop offset="0" stop-color="#c2b7a3" stop-opacity="0.6"></stop><stop offset="1" stop-color="#c2b7a3" stop-opacity="0.30196"></stop></linearGradient><linearGradient x1="3.363" y1="3.363" x2="20.637" y2="20.637" gradientUnits="userSpaceOnUse" id="color-2"><stop offset="0" stop-color="#c2b7a3" stop-opacity="0.6"></stop><stop offset="0.493" stop-color="#c2b7a3" stop-opacity="0"></stop><stop offset="0.997" stop-color="#c2b7a3" stop-opacity="0.30196"></stop></linearGradient><linearGradient x1="8.104" y1="9.219" x2="13.665" y2="14.781" gradientUnits="userSpaceOnUse" id="color-3"><stop offset="0" stop-color="#c2b7a3" stop-opacity="0.70196"></stop><stop offset="0.519" stop-color="#c2b7a3" stop-opacity="0.45098"></stop><stop offset="1" stop-color="#c2b7a3" stop-opacity="0.54902"></stop></linearGradient></defs><g fill="none" fill-rule="nonzero" stroke="none" stroke-width="1" stroke-linecap="butt" stroke-linejoin="miter" stroke-miterlimit="10" stroke-dasharray="" stroke-dashoffset="0" font-family="none" font-weight="none" font-size="none" text-anchor="none" style="mix-blend-mode: normal"><g transform="scale(10.66667,10.66667)"><path d="M19.503,3.421c-1.841,-0.221 -4.372,-0.421 -7.503,-0.421c-3.131,0 -5.662,0.2 -7.503,0.421c-2.001,0.24 -3.497,1.953 -3.497,3.969v9.221c0,2.015 1.496,3.728 3.497,3.969c1.841,0.22 4.372,0.42 7.503,0.42c3.131,0 5.662,-0.2 7.503,-0.421c2.001,-0.241 3.497,-1.953 3.497,-3.969v-9.22c0,-2.016 -1.496,-3.729 -3.497,-3.969z" fill="url(#color-1)"></path><path d="M12,3.5c2.632,0 5.136,0.141 7.443,0.418c1.743,0.209 3.057,1.702 3.057,3.472v9.221c0,1.77 -1.314,3.263 -3.057,3.472c-2.307,0.276 -4.811,0.417 -7.443,0.417c-2.632,0 -5.136,-0.141 -7.443,-0.418c-1.743,-0.209 -3.057,-1.702 -3.057,-3.472v-9.22c0,-1.77 1.314,-3.263 3.057,-3.472c2.307,-0.277 4.811,-0.418 7.443,-0.418M12,3c-3.131,0 -5.662,0.2 -7.503,0.421c-2.001,0.24 -3.497,1.953 -3.497,3.969v9.221c0,2.015 1.496,3.728 3.497,3.969c1.841,0.22 4.372,0.42 7.503,0.42c3.131,0 5.662,-0.2 7.503,-0.421c2.001,-0.241 3.497,-1.953 3.497,-3.969v-9.22c0,-2.015 -1.496,-3.728 -3.497,-3.969c-1.841,-0.221 -4.372,-0.421 -7.503,-0.421z" fill="url(#color-2)"></path><path d="M15.52,11.104l-4.846,-3.231c-0.331,-0.22 -0.757,-0.242 -1.105,-0.054c-0.35,0.188 -0.569,0.553 -0.569,0.95v6.462c0,0.398 0.219,0.762 0.569,0.95c0.159,0.085 0.334,0.127 0.508,0.127c0.209,0 0.417,-0.061 0.597,-0.181l4.846,-3.231c0.3,-0.2 0.48,-0.536 0.48,-0.896c0,-0.36 -0.18,-0.696 -0.48,-0.896z" fill="url(#color-3)"></path></g></g></svg>