<svg xmlns="http://www.w3.org/2000/svg" xmlns:xlink="http://www.w3.org/1999/xlink" viewBox="0,0,256,256" width="48px" height="48px" fill-rule="nonzero"><defs><linearGradient x1="4.702" y1="4.296" x2="19.361" y2="18.954" gradientUnits="userSpaceOnUse" id="color-1"><stop offset="0" stop-color="#c2b7a3" stop-opacity="0.6"></stop><stop offset="1" stop-color="#c2b7a3" stop-opacity="0.30196"></stop></linearGradient><linearGradient x1="4.702" y1="4.296" x2="19.361" y2="18.954" gradientUnits="userSpaceOnUse" id="color-2"><stop offset="0" stop-color="#c2b7a3" stop-opacity="0.6"></stop><stop offset="0.493" stop-color="#c2b7a3" stop-opacity="0"></stop><stop offset="0.997" stop-color="#c2b7a3" stop-opacity="0.30196"></stop></linearGradient><linearGradient x1="13.752" y1="4.688" x2="17.312" y2="8.248" gradientUnits="userSpaceOnUse" id="color-3"><stop offset="0" stop-color="#c2b7a3" stop-opacity="0.70196"></stop><stop offset="0.519" stop-color="#c2b7a3" stop-opacity="0.45098"></stop><stop offset="1" stop-color="#c2b7a3" stop-opacity="0.54902"></stop></linearGradient></defs><g fill="none" fill-rule="nonzero" stroke="none" stroke-width="1" stroke-linecap="butt" stroke-linejoin="miter" stroke-miterlimit="10" stroke-dasharray="" stroke-dashoffset="0" font-family="none" font-weight="none" font-size="none" text-anchor="none" style="mix-blend-mode: normal"><g transform="scale(10.66667,10.66667)"><path d="M19,12h-6v-2l-0.03,-0.03c1.14,-0.09 3.07,-0.45 4.37,-1.75c1,-1.01 1.45,-2.39 1.64,-3.49c0.17,-1 -0.71,-1.88 -1.71,-1.71c-1.1,0.19 -2.48,0.64 -3.49,1.64c-0.72,0.72 -1.15,1.63 -1.4,2.5c-0.31,-0.8 -0.76,-1.6 -1.42,-2.26c-1.15,-1.15 -2.72,-1.66 -3.98,-1.87c-1.15,-0.2 -2.15,0.8 -1.95,1.95c0.21,1.26 0.72,2.83 1.87,3.98c1.19,1.19 2.82,1.69 4.1,1.89v1.15h-6c-1.11,0 -2,0.9 -2,2c0,4.42 3.58,8 8,8h2c4.42,0 8,-3.58 8,-8c0,-1.1 -0.9,-2 -2,-2z" fill="url(#color-1)"></path><path d="M17.519,3.499c0.286,0 0.559,0.129 0.749,0.354c0.19,0.225 0.268,0.507 0.219,0.792c-0.163,0.943 -0.556,2.267 -1.501,3.222c-1.214,1.214 -3.062,1.527 -4.056,1.605l-1.05,0.115l0.62,0.62v1.793v0.5h0.5h6c0.827,0 1.5,0.673 1.5,1.5c0,4.136 -3.364,7.5 -7.5,7.5h-2c-4.136,0 -7.5,-3.364 -7.5,-7.5c0,-0.827 0.673,-1.5 1.5,-1.5h6h0.5v-0.5v-1.15v-0.428l-0.423,-0.066c-1.121,-0.175 -2.695,-0.621 -3.824,-1.75c-1.103,-1.103 -1.549,-2.625 -1.73,-3.712c-0.061,-0.351 0.031,-0.694 0.259,-0.965c0.227,-0.27 0.556,-0.425 0.903,-0.425c0.069,0 0.138,0.006 0.213,0.019c1.083,0.181 2.606,0.627 3.709,1.73c0.54,0.54 0.98,1.242 1.307,2.087l0.537,1.385l0.41,-1.427c0.271,-0.942 0.699,-1.71 1.271,-2.283c0.956,-0.947 2.281,-1.34 3.222,-1.502c0.056,-0.01 0.111,-0.014 0.165,-0.014v0M17.519,2.999c-0.082,0 -0.165,0.007 -0.249,0.021c-1.1,0.19 -2.48,0.64 -3.49,1.64c-0.72,0.72 -1.15,1.63 -1.4,2.5c-0.31,-0.8 -0.76,-1.6 -1.42,-2.26c-1.15,-1.15 -2.72,-1.66 -3.98,-1.87c-0.1,-0.017 -0.198,-0.026 -0.295,-0.026c-1.019,0 -1.838,0.925 -1.655,1.976c0.21,1.26 0.72,2.83 1.87,3.98c1.19,1.19 2.82,1.69 4.1,1.89v1.15h-6c-1.11,0 -2,0.9 -2,2c0,4.42 3.58,8 8,8h2c4.42,0 8,-3.58 8,-8c0,-1.1 -0.9,-2 -2,-2h-6v-2l-0.03,-0.03c1.14,-0.09 3.07,-0.45 4.37,-1.75c1,-1.01 1.45,-2.39 1.64,-3.49c0.156,-0.916 -0.569,-1.731 -1.461,-1.731z" fill="url(#color-2)"></path><path d="M18.98,4.73c-0.19,1.1 -0.64,2.48 -1.64,3.49c-1.3,1.3 -3.23,1.66 -4.37,1.75c-0.06,-0.73 -0.21,-1.77 -0.59,-2.81c0.25,-0.87 0.68,-1.78 1.4,-2.5c1.01,-1 2.39,-1.45 3.49,-1.64c1,-0.17 1.88,0.71 1.71,1.71z" fill="url(#color-3)"></path></g></g></svg>