<svg xmlns="http://www.w3.org/2000/svg"  viewBox="0 0 24 24" width="48px" height="48px" baseProfile="basic"><linearGradient id="OvYClckki89BVdDDCeQ2Da" x1="15.22" x2="21.341" y1="2.659" y2="8.78" gradientUnits="userSpaceOnUse"><stop offset="0" stop-color="#fff" stop-opacity=".6"/><stop offset="1" stop-color="#fff" stop-opacity=".3"/></linearGradient><path fill="url(#OvYClckki89BVdDDCeQ2Da)" d="M15.5,6H17c0.552,0,1,0.448,1,1v1.5c0,0.828,0.672,1.5,1.5,1.5h0 c0.828,0,1.5-0.672,1.5-1.5V6c0-1.657-1.343-3-3-3h-2.5C14.672,3,14,3.672,14,4.5v0C14,5.328,14.672,6,15.5,6z"/><linearGradient id="OvYClckki89BVdDDCeQ2Db" x1="15.22" x2="21.341" y1="2.659" y2="8.78" gradientUnits="userSpaceOnUse"><stop offset="0" stop-color="#fff" stop-opacity=".6"/><stop offset=".493" stop-color="#fff" stop-opacity="0"/><stop offset=".997" stop-color="#fff" stop-opacity=".3"/></linearGradient><path fill="url(#OvYClckki89BVdDDCeQ2Db)" d="M18,3.5c1.379,0,2.5,1.121,2.5,2.5v2.5 c0,0.551-0.449,1-1,1s-1-0.449-1-1V7c0-0.827-0.673-1.5-1.5-1.5h-1.5c-0.551,0-1-0.449-1-1s0.449-1,1-1H18 M18,3h-2.5 C14.672,3,14,3.672,14,4.5S14.672,6,15.5,6H17c0.552,0,1,0.448,1,1v1.5c0,0.828,0.672,1.5,1.5,1.5S21,9.328,21,8.5V6 C21,4.343,19.657,3,18,3L18,3z"/><g><linearGradient id="OvYClckki89BVdDDCeQ2Dc" x1="3.879" x2="7.561" y1="3.879" y2="7.561" gradientUnits="userSpaceOnUse"><stop offset="0" stop-color="#fff" stop-opacity=".6"/><stop offset="1" stop-color="#fff" stop-opacity=".3"/></linearGradient><path fill="url(#OvYClckki89BVdDDCeQ2Dc)" d="M6,8.5V7c0-0.552,0.448-1,1-1h1.5 C9.328,6,10,5.328,10,4.5v0C10,3.672,9.328,3,8.5,3H6C4.343,3,3,4.343,3,6v2.5C3,9.328,3.672,10,4.5,10h0 C5.328,10,6,9.328,6,8.5z"/><linearGradient id="OvYClckki89BVdDDCeQ2Dd" x1="3.879" x2="7.561" y1="3.879" y2="7.561" gradientUnits="userSpaceOnUse"><stop offset="0" stop-color="#fff" stop-opacity=".6"/><stop offset=".493" stop-color="#fff" stop-opacity="0"/><stop offset=".997" stop-color="#fff" stop-opacity=".3"/></linearGradient><path fill="url(#OvYClckki89BVdDDCeQ2Dd)" d="M8.5,3.5c0.551,0,1,0.449,1,1 s-0.449,1-1,1H7C6.173,5.5,5.5,6.173,5.5,7v1.5c0,0.551-0.449,1-1,1s-1-0.449-1-1V6c0-1.379,1.121-2.5,2.5-2.5H8.5 M8.5,3H6 C4.343,3,3,4.343,3,6v2.5C3,9.328,3.672,10,4.5,10S6,9.328,6,8.5V7c0-0.552,0.448-1,1-1h1.5C9.328,6,10,5.328,10,4.5 S9.328,3,8.5,3L8.5,3z"/></g><g><linearGradient id="OvYClckki89BVdDDCeQ2De" x1="16.439" x2="20.121" y1="16.439" y2="20.121" gradientUnits="userSpaceOnUse"><stop offset="0" stop-color="#fff" stop-opacity=".6"/><stop offset="1" stop-color="#fff" stop-opacity=".3"/></linearGradient><path fill="url(#OvYClckki89BVdDDCeQ2De)" d="M18,15.5V17c0,0.552-0.448,1-1,1h-1.5 c-0.828,0-1.5,0.672-1.5,1.5v0c0,0.828,0.672,1.5,1.5,1.5H18c1.657,0,3-1.343,3-3v-2.5c0-0.828-0.672-1.5-1.5-1.5h0 C18.672,14,18,14.672,18,15.5z"/><linearGradient id="OvYClckki89BVdDDCeQ2Df" x1="16.439" x2="20.121" y1="16.439" y2="20.121" gradientUnits="userSpaceOnUse"><stop offset="0" stop-color="#fff" stop-opacity=".6"/><stop offset=".493" stop-color="#fff" stop-opacity="0"/><stop offset=".997" stop-color="#fff" stop-opacity=".3"/></linearGradient><path fill="url(#OvYClckki89BVdDDCeQ2Df)" d="M19.5,14.5c0.551,0,1,0.449,1,1V18 c0,1.379-1.121,2.5-2.5,2.5h-2.5c-0.551,0-1-0.449-1-1s0.449-1,1-1H17c0.827,0,1.5-0.673,1.5-1.5v-1.5 C18.5,14.949,18.949,14.5,19.5,14.5 M19.5,14c-0.828,0-1.5,0.672-1.5,1.5V17c0,0.552-0.448,1-1,1h-1.5 c-0.828,0-1.5,0.672-1.5,1.5s0.672,1.5,1.5,1.5H18c1.657,0,3-1.343,3-3v-2.5C21,14.672,20.328,14,19.5,14L19.5,14z"/></g><g><linearGradient id="OvYClckki89BVdDDCeQ2Dg" x1="2.659" x2="8.78" y1="15.22" y2="21.341" gradientUnits="userSpaceOnUse"><stop offset="0" stop-color="#fff" stop-opacity=".6"/><stop offset="1" stop-color="#fff" stop-opacity=".3"/></linearGradient><path fill="url(#OvYClckki89BVdDDCeQ2Dg)" d="M8.5,18H7c-0.552,0-1-0.448-1-1v-1.5 C6,14.672,5.328,14,4.5,14h0C3.672,14,3,14.672,3,15.5V18c0,1.657,1.343,3,3,3h2.5c0.828,0,1.5-0.672,1.5-1.5v0 C10,18.672,9.328,18,8.5,18z"/><linearGradient id="OvYClckki89BVdDDCeQ2Dh" x1="2.659" x2="8.78" y1="15.22" y2="21.341" gradientUnits="userSpaceOnUse"><stop offset="0" stop-color="#fff" stop-opacity=".6"/><stop offset=".493" stop-color="#fff" stop-opacity="0"/><stop offset=".997" stop-color="#fff" stop-opacity=".3"/></linearGradient><path fill="url(#OvYClckki89BVdDDCeQ2Dh)" d="M4.5,14.5c0.551,0,1,0.449,1,1V17 c0,0.827,0.673,1.5,1.5,1.5h1.5c0.551,0,1,0.449,1,1s-0.449,1-1,1H6c-1.379,0-2.5-1.121-2.5-2.5v-2.5 C3.5,14.949,3.949,14.5,4.5,14.5 M4.5,14C3.672,14,3,14.672,3,15.5V18c0,1.657,1.343,3,3,3h2.5c0.828,0,1.5-0.672,1.5-1.5 S9.328,18,8.5,18H7c-0.552,0-1-0.448-1-1v-1.5C6,14.672,5.328,14,4.5,14L4.5,14z"/></g></svg>