<svg xmlns="http://www.w3.org/2000/svg"  viewBox="0 0 24 24" width="48px" height="48px" baseProfile="basic"><linearGradient id="SgxATEAsF_ksEqfJqx39ja" x1="3.879" x2="20.121" y1="3.879" y2="20.121" gradientUnits="userSpaceOnUse"><stop offset="0" stop-color="#fff" stop-opacity=".6"/><stop offset="1" stop-color="#fff" stop-opacity=".3"/></linearGradient><path fill="url(#SgxATEAsF_ksEqfJqx39ja)" d="M6,3h12c1.657,0,3,1.343,3,3v12c0,1.657-1.343,3-3,3H6c-1.657,0-3-1.343-3-3V6	C3,4.343,4.343,3,6,3z"/><linearGradient id="SgxATEAsF_ksEqfJqx39jb" x1="3.879" x2="20.121" y1="3.879" y2="20.121" gradientUnits="userSpaceOnUse"><stop offset="0" stop-color="#fff" stop-opacity=".6"/><stop offset=".493" stop-color="#fff" stop-opacity="0"/><stop offset=".997" stop-color="#fff" stop-opacity=".3"/></linearGradient><path fill="url(#SgxATEAsF_ksEqfJqx39jb)" d="M18,3.5c1.378,0,2.5,1.122,2.5,2.5v12c0,1.378-1.122,2.5-2.5,2.5H6	c-1.378,0-2.5-1.122-2.5-2.5V6c0-1.378,1.122-2.5,2.5-2.5H18 M18,3H6C4.343,3,3,4.343,3,6v12c0,1.657,1.343,3,3,3h12	c1.657,0,3-1.343,3-3V6C21,4.343,19.657,3,18,3L18,3z"/></svg>