<svg xmlns="http://www.w3.org/2000/svg"  viewBox="0 0 24 24" width="48px" height="48px" baseProfile="basic"><linearGradient id="8WLTdGffjz03N5JFpAYBOa" x1="5.277" x2="16.312" y1="6.483" y2="17.517" gradientUnits="userSpaceOnUse"><stop offset="0" stop-color="#fff" stop-opacity=".6"/><stop offset="1" stop-color="#fff" stop-opacity=".3"/></linearGradient><path fill="url(#8WLTdGffjz03N5JFpAYBOa)" d="M12.662,3.112c-0.801-0.277-1.693-0.026-2.224,0.639L7.039,8H7H5c-1.654,0-3,1.346-3,3v2 c0,1.654,1.346,3,3,3h2h0.039l3.399,4.249C10.825,20.733,11.404,21,12,21c0.222,0,0.445-0.037,0.662-0.112 C13.464,20.606,14,19.85,14,19V5C14,4.15,13.464,3.394,12.662,3.112z"/><linearGradient id="8WLTdGffjz03N5JFpAYBOb" x1="5.277" x2="16.312" y1="6.483" y2="17.517" gradientUnits="userSpaceOnUse"><stop offset="0" stop-color="#fff" stop-opacity=".6"/><stop offset=".493" stop-color="#fff" stop-opacity="0"/><stop offset=".997" stop-color="#fff" stop-opacity=".3"/></linearGradient><path fill="url(#8WLTdGffjz03N5JFpAYBOb)" d="M12.002,3.501 c0.169,0,0.336,0.028,0.494,0.083C13.097,3.795,13.5,4.364,13.5,5v14c0,0.636-0.403,1.205-1.001,1.415 C12.336,20.472,12.169,20.5,12,20.5c-0.458,0-0.885-0.205-1.172-0.563l-3.399-4.249L7.24,15.5H7H5c-1.379,0-2.5-1.122-2.5-2.5v-2 c0-1.378,1.121-2.5,2.5-2.5h2.039h0.24l0.15-0.188l3.399-4.249C11.114,3.706,11.542,3.501,12.002,3.501 M12.002,3.001 c-0.596,0-1.176,0.265-1.564,0.75L7.039,8H7H5c-1.654,0-3,1.346-3,3v2c0,1.654,1.346,3,3,3h2h0.039l3.399,4.249 C10.825,20.733,11.404,21,12,21c0.222,0,0.445-0.037,0.662-0.112C13.464,20.606,14,19.85,14,19V5c0-0.85-0.536-1.606-1.338-1.888 C12.446,3.037,12.222,3.001,12.002,3.001L12.002,3.001z"/><g><linearGradient id="8WLTdGffjz03N5JFpAYBOc" x1="14.008" x2="18.709" y1="9.65" y2="14.35" gradientUnits="userSpaceOnUse"><stop offset="0" stop-color="#fff" stop-opacity=".6"/><stop offset="1" stop-color="#fff" stop-opacity=".3"/></linearGradient><path fill="url(#8WLTdGffjz03N5JFpAYBOc)" d="M16.321,16.248 c-0.312,0-0.619-0.146-0.814-0.418c-0.321-0.449-0.218-1.073,0.231-1.396C16.528,13.869,17,12.959,17,12s-0.472-1.869-1.262-2.435 c-0.449-0.322-0.553-0.946-0.231-1.396c0.321-0.448,0.944-0.553,1.396-0.231C18.216,8.879,19,10.397,19,12 s-0.784,3.121-2.098,4.062C16.726,16.188,16.522,16.248,16.321,16.248z"/><linearGradient id="8WLTdGffjz03N5JFpAYBOd" x1="14.008" x2="18.709" y1="9.65" y2="14.35" gradientUnits="userSpaceOnUse"><stop offset="0" stop-color="#fff" stop-opacity=".6"/><stop offset=".493" stop-color="#fff" stop-opacity="0"/><stop offset=".997" stop-color="#fff" stop-opacity=".3"/></linearGradient><path fill="url(#8WLTdGffjz03N5JFpAYBOd)" d="M16.321,8.252L16.321,8.252 c0.104,0,0.205,0.032,0.29,0.093C17.794,9.192,18.5,10.558,18.5,12c0,1.442-0.706,2.808-1.888,3.654 c-0.086,0.061-0.187,0.094-0.291,0.094c-0.162,0-0.314-0.078-0.408-0.209c-0.16-0.224-0.108-0.537,0.116-0.698 C16.95,14.182,17.5,13.12,17.5,12s-0.55-2.182-1.47-2.841c-0.224-0.161-0.276-0.474-0.117-0.698 C16.009,8.328,16.157,8.252,16.321,8.252 M16.321,7.752c-0.312,0-0.619,0.146-0.814,0.418c-0.321,0.449-0.218,1.073,0.231,1.396 C16.528,10.131,17,11.041,17,12s-0.472,1.869-1.262,2.435c-0.449,0.322-0.553,0.946-0.231,1.396 c0.195,0.272,0.503,0.418,0.814,0.418c0.201,0,0.404-0.061,0.581-0.187C18.216,15.121,19,13.603,19,12s-0.784-3.121-2.098-4.062 C16.725,7.812,16.522,7.752,16.321,7.752L16.321,7.752z"/></g><g><linearGradient id="8WLTdGffjz03N5JFpAYBOe" x1="14.724" x2="22.719" y1="8.003" y2="15.997" gradientUnits="userSpaceOnUse"><stop offset="0" stop-color="#fff" stop-opacity=".6"/><stop offset="1" stop-color="#fff" stop-opacity=".3"/></linearGradient><path fill="url(#8WLTdGffjz03N5JFpAYBOe)" d="M18.646,19.504 c-0.312,0-0.619-0.146-0.814-0.418c-0.321-0.449-0.218-1.074,0.231-1.396C19.902,16.375,21,14.248,21,12s-1.098-4.375-2.937-5.69 c-0.449-0.321-0.553-0.946-0.231-1.396c0.321-0.448,0.945-0.552,1.396-0.231C21.59,6.373,23,9.108,23,12s-1.41,5.627-3.772,7.317 C19.051,19.443,18.848,19.504,18.646,19.504z"/><linearGradient id="8WLTdGffjz03N5JFpAYBOf" x1="14.724" x2="22.719" y1="8.003" y2="15.997" gradientUnits="userSpaceOnUse"><stop offset="0" stop-color="#fff" stop-opacity=".6"/><stop offset=".493" stop-color="#fff" stop-opacity="0"/><stop offset=".997" stop-color="#fff" stop-opacity=".3"/></linearGradient><path fill="url(#8WLTdGffjz03N5JFpAYBOf)" d="M18.646,4.997L18.646,4.997 c0.105,0,0.205,0.032,0.29,0.093C21.168,6.686,22.5,9.269,22.5,12s-1.332,5.314-3.563,6.91c-0.086,0.061-0.187,0.094-0.291,0.094 c-0.162,0-0.314-0.078-0.408-0.209c-0.078-0.109-0.108-0.241-0.087-0.373c0.022-0.132,0.094-0.247,0.202-0.325 C20.324,16.688,21.5,14.409,21.5,12s-1.176-4.688-3.146-6.097c-0.109-0.078-0.18-0.193-0.202-0.325 c-0.022-0.132,0.009-0.264,0.086-0.373C18.334,5.073,18.482,4.997,18.646,4.997 M18.646,4.497c-0.312,0-0.619,0.145-0.814,0.418 c-0.321,0.449-0.218,1.074,0.231,1.396C19.902,7.625,21,9.752,21,12s-1.098,4.375-2.937,5.69 c-0.449,0.321-0.553,0.946-0.231,1.396c0.195,0.272,0.503,0.418,0.814,0.418c0.201,0,0.404-0.061,0.581-0.187 C21.59,17.627,23,14.892,23,12s-1.41-5.627-3.772-7.317C19.051,4.557,18.848,4.497,18.646,4.497L18.646,4.497z"/></g><g><linearGradient id="8WLTdGffjz03N5JFpAYBOg" x1="2.57" x2="8.19" y1="9.19" y2="14.81" gradientUnits="userSpaceOnUse"><stop offset="0" stop-color="#fff" stop-opacity=".6"/><stop offset="1" stop-color="#fff" stop-opacity=".3"/></linearGradient><path fill="url(#8WLTdGffjz03N5JFpAYBOg)" d="M5,8c-1.654,0-3,1.346-3,3v2 c0,1.654,1.346,3,3,3h2V8H5z"/><linearGradient id="8WLTdGffjz03N5JFpAYBOh" x1="2" x2="7" y1="12" y2="12" gradientUnits="userSpaceOnUse"><stop offset="0" stop-color="#fff" stop-opacity=".6"/><stop offset=".493" stop-color="#fff" stop-opacity="0"/><stop offset=".997" stop-color="#fff" stop-opacity=".3"/></linearGradient><path fill="url(#8WLTdGffjz03N5JFpAYBOh)" d="M6.5,8.5v7H5c-1.379,0-2.5-1.122-2.5-2.5 v-2c0-1.378,1.121-2.5,2.5-2.5H6.5 M7,8H5c-1.654,0-3,1.346-3,3v2c0,1.654,1.346,3,3,3h2V8L7,8z"/></g></svg>