<svg xmlns="http://www.w3.org/2000/svg"  viewBox="0 0 24 24" width="48px" height="48px" baseProfile="basic"><linearGradient id="f8bnBiAd70RbVputkTZ8-a" x1="4.864" x2="19.001" y1="5.994" y2="20.131" gradientUnits="userSpaceOnUse"><stop offset="0" stop-color="#fff" stop-opacity=".6"/><stop offset="1" stop-color="#fff" stop-opacity=".3"/></linearGradient><path fill="url(#f8bnBiAd70RbVputkTZ8-a)" d="M20.344,7.491c-0.329-0.496-1.021-0.593-1.479-0.212c-0.387,0.322-0.476,0.883-0.197,1.303	C19.509,9.847,20,11.366,20,13c0,4.943-4.483,8.839-9.605,7.844c-3.119-0.606-5.633-3.12-6.239-6.239C3.161,9.483,7.057,5,12,5	v0.413c0,0.475,0.536,0.753,0.924,0.478l1.995-1.413c0.33-0.234,0.33-0.723,0-0.956l-1.995-1.413C12.536,1.834,12,2.111,12,2.587V3	C6.477,3,2,7.477,2,13c0,5.903,5.114,10.611,11.153,9.935c4.509-0.505,8.192-4.127,8.763-8.629	C22.238,11.776,21.611,9.404,20.344,7.491z"/><linearGradient id="f8bnBiAd70RbVputkTZ8-b" x1="4.864" x2="19.001" y1="5.994" y2="20.131" gradientUnits="userSpaceOnUse"><stop offset="0" stop-color="#fff" stop-opacity=".6"/><stop offset=".493" stop-color="#fff" stop-opacity="0"/><stop offset=".997" stop-color="#fff" stop-opacity=".3"/></linearGradient><path fill="url(#f8bnBiAd70RbVputkTZ8-b)" d="M12.588,2.5c0.016,0,0.031,0.005,0.048,0.017l1.995,1.413c0.024,0.017,0.036,0.041,0.036,0.07	s-0.012,0.053-0.036,0.07l-1.995,1.413C12.619,5.495,12.604,5.5,12.588,5.5c-0.019,0-0.088-0.015-0.088-0.087V5V4.5H12	c-2.548,0-4.939,1.129-6.562,3.096C3.817,9.564,3.17,12.153,3.665,14.7c0.646,3.323,3.312,5.989,6.634,6.634	c0.565,0.11,1.137,0.165,1.7,0.165c4.687,0,8.5-3.813,8.5-8.5c0-1.678-0.489-3.301-1.416-4.695	c-0.136-0.205-0.092-0.481,0.101-0.642c0.116-0.097,0.241-0.117,0.324-0.117c0.17,0,0.326,0.083,0.417,0.221	c1.271,1.92,1.788,4.16,1.493,6.477c-0.542,4.269-4.042,7.716-8.323,8.195C12.733,22.479,12.363,22.5,12,22.5	c-5.238,0-9.5-4.262-9.5-9.5S6.762,3.5,12,3.5h0.5V3V2.587C12.5,2.546,12.547,2.5,12.588,2.5 M12.588,2C12.284,2,12,2.241,12,2.587	V3C6.477,3,2,7.477,2,13c0,5.523,4.477,10,10,10c0.38,0,0.765-0.021,1.153-0.065c4.509-0.505,8.192-4.127,8.763-8.629	c0.321-2.53-0.306-4.903-1.573-6.816c-0.193-0.292-0.512-0.445-0.834-0.445c-0.227,0-0.456,0.076-0.645,0.233	c-0.387,0.322-0.476,0.883-0.197,1.303C19.509,9.847,20,11.366,20,13c0,4.418-3.582,8-8,8c-0.525,0-1.061-0.05-1.605-0.156	c-3.119-0.606-5.633-3.12-6.239-6.239C3.161,9.483,7.057,5,12,5v0.413C12,5.759,12.284,6,12.588,6c0.114,0,0.231-0.034,0.337-0.109	l1.995-1.413c0.33-0.234,0.33-0.723,0-0.956l-1.995-1.413C12.819,2.034,12.702,2,12.588,2L12.588,2z"/><linearGradient id="f8bnBiAd70RbVputkTZ8-c" x1="6.997" x2="11.752" y1="10.474" y2="15.229" gradientUnits="userSpaceOnUse"><stop offset="0" stop-color="#fff" stop-opacity=".6"/><stop offset="1" stop-color="#fff" stop-opacity=".3"/></linearGradient><path fill="url(#f8bnBiAd70RbVputkTZ8-c)" d="M8.726,16.113v-5.011L8.25,11.461c-0.383,0.289-0.932,0.176-1.17-0.24l0,0	C6.878,10.87,6.973,10.424,7.3,10.184L8.603,9.23C8.807,9.081,9.054,9,9.308,9h0C9.966,9,10.5,9.534,10.5,10.192v5.92	c0,0.49-0.397,0.887-0.887,0.887h0C9.123,17,8.726,16.603,8.726,16.113z"/><linearGradient id="f8bnBiAd70RbVputkTZ8-d" x1="6.997" x2="11.752" y1="10.474" y2="15.229" gradientUnits="userSpaceOnUse"><stop offset="0" stop-color="#fff" stop-opacity=".6"/><stop offset=".493" stop-color="#fff" stop-opacity="0"/><stop offset=".997" stop-color="#fff" stop-opacity=".3"/></linearGradient><path fill="url(#f8bnBiAd70RbVputkTZ8-d)" d="M9.308,9.5C9.689,9.5,10,9.811,10,10.192v5.92c0,0.214-0.174,0.387-0.387,0.387	c-0.213,0-0.387-0.174-0.387-0.387v-5.011v-1.004l-0.801,0.605l-0.476,0.359c-0.066,0.049-0.132,0.06-0.177,0.06	c-0.108,0-0.204-0.056-0.258-0.149c-0.075-0.131-0.04-0.296,0.082-0.385l1.303-0.954C9.018,9.546,9.159,9.5,9.308,9.5 M9.308,9	c-0.253,0-0.5,0.081-0.704,0.23L7.3,10.184c-0.327,0.239-0.422,0.686-0.221,1.037c0.148,0.259,0.417,0.401,0.692,0.401	c0.166,0,0.334-0.052,0.478-0.161l0.476-0.359v5.011c0,0.49,0.397,0.887,0.887,0.887c0.49,0,0.887-0.397,0.887-0.887v-5.92	C10.5,9.534,9.966,9,9.308,9L9.308,9z"/><linearGradient id="f8bnBiAd70RbVputkTZ8-e" x1="12.035" x2="16.956" y1="10.547" y2="15.468" gradientUnits="userSpaceOnUse"><stop offset="0" stop-color="#fff" stop-opacity=".6"/><stop offset="1" stop-color="#fff" stop-opacity=".3"/></linearGradient><path fill="url(#f8bnBiAd70RbVputkTZ8-e)" d="M17.02,13c0,0.434,0.077,4-2.526,4s-2.515-3.566-2.515-4s-0.051-4,2.515-4	S17.02,12.566,17.02,13z M15.287,13c0-0.253,0.06-2.472-0.792-2.472S13.704,12.747,13.704,13c0,0.26-0.025,2.472,0.791,2.472	S15.287,13.26,15.287,13z"/><linearGradient id="f8bnBiAd70RbVputkTZ8-f" x1="12.035" x2="16.956" y1="10.547" y2="15.468" gradientUnits="userSpaceOnUse"><stop offset="0" stop-color="#fff" stop-opacity=".6"/><stop offset=".493" stop-color="#fff" stop-opacity="0"/><stop offset=".997" stop-color="#fff" stop-opacity=".3"/></linearGradient><path fill="url(#f8bnBiAd70RbVputkTZ8-f)" d="M14.495,9.5c0.476,0,0.855,0.148,1.16,0.453c0.552,0.552,0.867,1.656,0.866,3.026l0,0.058	v0.001c0.005,1.385-0.295,2.452-0.845,3.004c-0.307,0.308-0.693,0.458-1.18,0.458c-0.486,0-0.871-0.149-1.177-0.456	c-0.547-0.549-0.845-1.615-0.838-3l0-0.068v-0.002c-0.002-1.372,0.311-2.474,0.859-3.023C13.642,9.648,14.02,9.5,14.495,9.5 M14.495,15.972c0.252,0,0.485-0.099,0.673-0.288c0.413-0.414,0.622-1.31,0.619-2.663l-0.5,0.001l0.5-0.066	c0.011-1.353-0.185-2.213-0.599-2.631c-0.192-0.194-0.432-0.296-0.693-0.296s-0.501,0.102-0.693,0.296	c-0.414,0.417-0.609,1.278-0.598,2.63l0,0.067c-0.003,1.353,0.205,2.249,0.618,2.662C14.01,15.872,14.242,15.972,14.495,15.972 M14.495,9c-2.566,0-2.515,3.566-2.515,4s-0.087,4,2.515,4s2.526-3.566,2.526-4S17.061,9,14.495,9L14.495,9z M14.495,15.472	c-0.816,0-0.791-2.211-0.791-2.472c0-0.253-0.061-2.472,0.791-2.472s0.792,2.219,0.792,2.472	C15.286,13.26,15.311,15.472,14.495,15.472L14.495,15.472z"/></svg>