<svg xmlns="http://www.w3.org/2000/svg"  viewBox="0 0 24 24" width="48px" height="48px" baseProfile="basic"><linearGradient id="JQSsdW7ihuwbRQXIGFXRga" x1="4.28" x2="19.714" y1="6.163" y2="21.597" gradientUnits="userSpaceOnUse"><stop offset="0" stop-color="#fff" stop-opacity=".6"/><stop offset="1" stop-color="#fff" stop-opacity=".3"/></linearGradient><path fill="url(#JQSsdW7ihuwbRQXIGFXRga)" d="M21.155,20.101c1.414-2.118,2.113-4.755,1.751-7.564c-0.637-4.938-4.679-8.906-9.627-9.464 C6.631,2.323,1,7.504,1,14c0,2.263,0.684,4.367,1.856,6.116C3.227,20.67,3.855,21,4.523,21h14.953 C20.15,21,20.78,20.661,21.155,20.101z"/><linearGradient id="JQSsdW7ihuwbRQXIGFXRgb" x1="4.28" x2="19.714" y1="6.163" y2="21.597" gradientUnits="userSpaceOnUse"><stop offset="0" stop-color="#fff" stop-opacity=".6"/><stop offset=".493" stop-color="#fff" stop-opacity="0"/><stop offset=".997" stop-color="#fff" stop-opacity=".3"/></linearGradient><path fill="url(#JQSsdW7ihuwbRQXIGFXRgb)" d="M12,3.5c0.405,0,0.816,0.023,1.223,0.069 c4.717,0.532,8.58,4.33,9.187,9.031c0.329,2.551-0.264,5.116-1.671,7.223c-0.283,0.424-0.755,0.677-1.263,0.677H4.523 c-0.506,0-0.974-0.248-1.252-0.663C2.112,18.109,1.5,16.09,1.5,14C1.5,8.21,6.21,3.5,12,3.5 M12,3C5.925,3,1,7.925,1,14 c0,2.263,0.684,4.367,1.856,6.116C3.227,20.67,3.855,21,4.523,21h14.953c0.674,0,1.304-0.339,1.678-0.899 c1.414-2.118,2.113-4.755,1.751-7.564c-0.637-4.938-4.679-8.906-9.627-9.464C12.848,3.024,12.421,3,12,3L12,3z"/><linearGradient id="JQSsdW7ihuwbRQXIGFXRgc" x1="19.293" x2="20.707" y1="13.293" y2="14.707" gradientUnits="userSpaceOnUse"><stop offset="0" stop-color="#fff" stop-opacity=".7"/><stop offset=".519" stop-color="#fff" stop-opacity=".45"/><stop offset="1" stop-color="#fff" stop-opacity=".55"/></linearGradient><circle cx="20" cy="14" r="1" fill="url(#JQSsdW7ihuwbRQXIGFXRgc)"/><linearGradient id="JQSsdW7ihuwbRQXIGFXRgd" x1="13.484" x2="16.359" y1="10.394" y2="13.27" gradientUnits="userSpaceOnUse"><stop offset="0" stop-color="#fff" stop-opacity=".7"/><stop offset=".519" stop-color="#fff" stop-opacity=".45"/><stop offset="1" stop-color="#fff" stop-opacity=".55"/></linearGradient><path fill="url(#JQSsdW7ihuwbRQXIGFXRgd)" d="M11.25,12.701	c-0.717,0.414-0.963,1.332-0.549,2.049c0.414,0.717,1.332,0.963,2.049,0.549c0.717-0.414,7.458-5.082,7.044-5.799	C19.38,8.783,11.967,12.287,11.25,12.701z"/><linearGradient id="JQSsdW7ihuwbRQXIGFXRge" x1="3.293" x2="4.707" y1="13.293" y2="14.707" gradientUnits="userSpaceOnUse"><stop offset="0" stop-color="#fff" stop-opacity=".7"/><stop offset=".519" stop-color="#fff" stop-opacity=".45"/><stop offset="1" stop-color="#fff" stop-opacity=".55"/></linearGradient><circle cx="4" cy="14" r="1" fill="url(#JQSsdW7ihuwbRQXIGFXRge)"/><linearGradient id="JQSsdW7ihuwbRQXIGFXRgf" x1="11.293" x2="12.707" y1="5.293" y2="6.707" gradientUnits="userSpaceOnUse"><stop offset="0" stop-color="#fff" stop-opacity=".7"/><stop offset=".519" stop-color="#fff" stop-opacity=".45"/><stop offset="1" stop-color="#fff" stop-opacity=".55"/></linearGradient><circle cx="12" cy="6" r="1" fill="url(#JQSsdW7ihuwbRQXIGFXRgf)"/><linearGradient id="JQSsdW7ihuwbRQXIGFXRgg" x1="4.364" x2="5.779" y1="17.293" y2="18.707" gradientUnits="userSpaceOnUse"><stop offset="0" stop-color="#fff" stop-opacity=".7"/><stop offset=".519" stop-color="#fff" stop-opacity=".45"/><stop offset="1" stop-color="#fff" stop-opacity=".55"/></linearGradient><circle cx="5.072" cy="18" r="1" fill="url(#JQSsdW7ihuwbRQXIGFXRgg)"/><linearGradient id="JQSsdW7ihuwbRQXIGFXRgh" x1="7.293" x2="8.707" y1="6.364" y2="7.779" gradientUnits="userSpaceOnUse"><stop offset="0" stop-color="#fff" stop-opacity=".7"/><stop offset=".519" stop-color="#fff" stop-opacity=".45"/><stop offset="1" stop-color="#fff" stop-opacity=".55"/></linearGradient><circle cx="8" cy="7.072" r="1" fill="url(#JQSsdW7ihuwbRQXIGFXRgh)"/><linearGradient id="JQSsdW7ihuwbRQXIGFXRgi" x1="15.293" x2="16.707" y1="6.364" y2="7.779" gradientUnits="userSpaceOnUse"><stop offset="0" stop-color="#fff" stop-opacity=".7"/><stop offset=".519" stop-color="#fff" stop-opacity=".45"/><stop offset="1" stop-color="#fff" stop-opacity=".55"/></linearGradient><circle cx="16" cy="7.072" r="1" fill="url(#JQSsdW7ihuwbRQXIGFXRgi)"/><linearGradient id="JQSsdW7ihuwbRQXIGFXRgj" x1="18.221" x2="19.636" y1="17.293" y2="18.707" gradientUnits="userSpaceOnUse"><stop offset="0" stop-color="#fff" stop-opacity=".7"/><stop offset=".519" stop-color="#fff" stop-opacity=".45"/><stop offset="1" stop-color="#fff" stop-opacity=".55"/></linearGradient><circle cx="18.928" cy="18" r="1" fill="url(#JQSsdW7ihuwbRQXIGFXRgj)"/><linearGradient id="JQSsdW7ihuwbRQXIGFXRgk" x1="4.364" x2="5.779" y1="9.293" y2="10.707" gradientUnits="userSpaceOnUse"><stop offset="0" stop-color="#fff" stop-opacity=".7"/><stop offset=".519" stop-color="#fff" stop-opacity=".45"/><stop offset="1" stop-color="#fff" stop-opacity=".55"/></linearGradient><circle cx="5.072" cy="10" r="1" fill="url(#JQSsdW7ihuwbRQXIGFXRgk)"/></svg>